<svg xmlns="http://www.w3.org/2000/svg" viewBox="-10734 -10845 512 375.866">
  <defs>
    <style>
      .cls-1 {
        fill: #fff;
      }
    </style>
  </defs>
  <g id="_002-team" data-name="002-team" transform="translate(-10734 -10913.066)">
    <g id="Group_148" data-name="Group 148">
      <g id="Group_147" data-name="Group 147">
        <path id="Path_7714" data-name="Path 7714" class="cls-1" d="M451.72,237.26c-17.422-8.71-50.087-8.811-51.469-8.811a7.5,7.5,0,0,0,0,15c8.429,0,32.9,1.3,44.761,7.228a7.5,7.5,0,0,0,6.708-13.417Z"/>
      </g>
    </g>
    <g id="Group_150" data-name="Group 150">
      <g id="Group_149" data-name="Group 149">
        <path id="Path_7715" data-name="Path 7715" class="cls-1" d="M489.112,344.041l-30.975-8.85a3.145,3.145,0,0,1-2.271-3.011V321.841a56.367,56.367,0,0,0,7.171-5.881,55.174,55.174,0,0,0,16.887-39.915V261.778l2.995-5.989a47.847,47.847,0,0,0,5.024-21.286v-38.65a7.5,7.5,0,0,0-7.5-7.5H408.27a47.651,47.651,0,0,0-47.6,47.6v.447a39.78,39.78,0,0,0,4.178,17.7l3.841,7.682v12.25a58.519,58.519,0,0,0,24.058,47.315l0,10.836c0,1.671,0,2.363-6.193,4.133l-15.114,4.318-43.721-15.9a7.491,7.491,0,0,0-2.044-5.742L311.71,304.311v-24.64c1.477-1.217,2.933-2.467,4.344-3.789a88.025,88.025,0,0,0,27.733-63.991V192.213a86.694,86.694,0,0,0,8.019-36.457V75.566a7.5,7.5,0,0,0-7.5-7.5H232.037a71.734,71.734,0,0,0-71.653,71.653v16.039a86.694,86.694,0,0,0,8.019,36.457v16.931a91.643,91.643,0,0,0,32.077,69.946v25.22L186.509,318.99a7.491,7.491,0,0,0-2.044,5.742L138.32,341.511a39.33,39.33,0,0,0-9.272,4.858l-7.246-3.623c21.57-9.389,28.4-22.594,28.731-23.25a7.5,7.5,0,0,0,0-6.708c-5.407-10.814-6.062-30.635-6.588-46.561-.175-5.3-.341-10.311-.658-14.771-2.557-35.974-29.9-63.1-63.615-63.1s-61.059,27.128-63.615,63.1c-.317,4.461-.483,9.47-.658,14.773-.526,15.925-1.182,35.744-6.588,46.558a7.5,7.5,0,0,0,0,6.708c.328.656,7.147,13.834,28.76,23.234L17.444,352.792A31.394,31.394,0,0,0,0,381.02v55.409a7.5,7.5,0,0,0,15,0V381.02a16.469,16.469,0,0,1,9.152-14.81l25.063-12.531,8.718,8.285a31.542,31.542,0,0,0,43.478,0l8.717-8.284,8.172,4.086a39.494,39.494,0,0,0-6.032,20.94v57.725a7.5,7.5,0,0,0,15,0V378.706a24.652,24.652,0,0,1,16.178-23.1L192.1,337.918,212.351,368.3a15.462,15.462,0,0,0,11.383,6.835q.777.076,1.547.076a15.458,15.458,0,0,0,10.957-4.546l12.356-12.356v78.124a7.5,7.5,0,0,0,15,0V358.308l12.356,12.356a15.452,15.452,0,0,0,10.957,4.547q.77,0,1.546-.076a15.462,15.462,0,0,0,11.384-6.835l20.254-30.38,48.651,17.691a24.653,24.653,0,0,1,16.178,23.1v57.725a7.5,7.5,0,0,0,15,0V378.708a39.648,39.648,0,0,0-11.093-27.441l1.853-.529a41.132,41.132,0,0,0,6.979-2.52l19.149,19.149v69.066a7.5,7.5,0,0,0,15,0V367.367l19.016-19.016a17.841,17.841,0,0,0,3.191,1.267l30.976,8.85A16.629,16.629,0,0,1,497,374.389v62.044a7.5,7.5,0,0,0,15,0V374.389A31.7,31.7,0,0,0,489.112,344.041Zm-441-13.247c-14.029-5.048-21.066-11.778-24.07-15.453a82.671,82.671,0,0,0,4.275-17.959,55.927,55.927,0,0,0,19.8,24.423Zm42.965,20.3a16.55,16.55,0,0,1-22.813,0l-6.975-6.628a15.518,15.518,0,0,0,1.824-7.324v-7.994a55.771,55.771,0,0,0,33.115.005v7.988a15.518,15.518,0,0,0,1.824,7.327Zm-11.4-34.43a40.661,40.661,0,0,1-40.615-40.615,7.455,7.455,0,0,0-8.731-7.39c.022-.645.043-1.291.065-1.93.167-5.157.328-10.028.625-14.206a55.682,55.682,0,0,1,15.163-34.968,46.6,46.6,0,0,1,66.982,0,55.682,55.682,0,0,1,15.163,34.968c.3,4.177.458,9.047.628,14.2.015.443.03.892.045,1.338-8.16-12.572-20.762-21.837-37.045-27.069a94.128,94.128,0,0,0-28.527-4.52,7.5,7.5,0,0,0-5.191,2.291L44.706,252.8A7.5,7.5,0,0,0,55.5,263.21l11.26-11.677c9.7.474,40.894,4.1,53.027,30.819A40.517,40.517,0,0,1,79.676,316.662Zm31.553,14.157v-8.945a55.477,55.477,0,0,0,19.8-24.449,82.566,82.566,0,0,0,4.27,17.918C132.314,318.983,125.244,325.773,111.229,330.819ZM183.4,209.145V190.537a7.5,7.5,0,0,0-.746-3.261,71.941,71.941,0,0,1-7.273-31.518V139.72a56.717,56.717,0,0,1,56.653-56.653H336.806v72.692a71.941,71.941,0,0,1-7.273,31.518,7.5,7.5,0,0,0-.746,3.261v21.355A72,72,0,0,1,305.8,264.94a74.641,74.641,0,0,1-5.758,4.875c-.044.03-.086.063-.129.094a72.114,72.114,0,0,1-48.667,14.519C213.2,281.965,183.4,248.9,183.4,209.145Zm42.229,150.911a.471.471,0,0,1-.418.149.477.477,0,0,1-.381-.229l-23.325-34.988,7.506-7.887L244.4,341.288ZM256.1,331.113,215.48,303.351v-14A84.445,84.445,0,0,0,250.271,299.4q2.966.192,5.9.191a86.874,86.874,0,0,0,40.538-9.935v13.7Zm31.262,28.865a.477.477,0,0,1-.381.229.462.462,0,0,1-.418-.149l-18.767-18.767L303.176,317.1l7.507,7.887Zm136.951-6.328-17.02-17.019a20.577,20.577,0,0,0,.464-4.455v-3.165a52.589,52.589,0,0,0,14.852,2.624c.578.018,1.151.026,1.727.026a55.71,55.71,0,0,0,16.536-2.5v3.02a17.929,17.929,0,0,0,.542,4.371ZM452.591,305.2a40.309,40.309,0,0,1-29.537,11.446c-21.7-.651-39.361-19.768-39.361-42.613V260.008a7.493,7.493,0,0,0-.792-3.354l-4.633-9.266a24.706,24.706,0,0,1-2.594-10.991v-.447a32.633,32.633,0,0,1,32.6-32.6h64.673V234.5a32.77,32.77,0,0,1-3.441,14.578l-3.786,7.572a7.5,7.5,0,0,0-.792,3.354v16.038A40.3,40.3,0,0,1,452.591,305.2Z"/>
      </g>
    </g>
    <g id="Group_152" data-name="Group 152">
      <g id="Group_151" data-name="Group 151">
        <path id="Path_7716" data-name="Path 7716" class="cls-1" d="M472.423,380.814a7.5,7.5,0,0,0-7.5,7.5v48.115a7.5,7.5,0,0,0,15,0V388.314A7.5,7.5,0,0,0,472.423,380.814Z"/>
      </g>
    </g>
    <g id="Group_154" data-name="Group 154">
      <g id="Group_153" data-name="Group 153">
        <path id="Path_7717" data-name="Path 7717" class="cls-1" d="M39.577,390.728a7.5,7.5,0,0,0-7.5,7.5v38.2a7.5,7.5,0,0,0,15,0v-38.2A7.5,7.5,0,0,0,39.577,390.728Z"/>
      </g>
    </g>
    <g id="Group_156" data-name="Group 156">
      <g id="Group_155" data-name="Group 155">
        <path id="Path_7718" data-name="Path 7718" class="cls-1" d="M317.532,158.475c-28.366-28.366-87.715-22.943-111.917-19.295a15.4,15.4,0,0,0-13.155,15.339V171.8a7.5,7.5,0,1,0,15,0V154.518a.5.5,0,0,1,.392-.507c9.667-1.457,28.85-3.705,48.725-2.38,23.388,1.557,40.328,7.428,50.349,17.45a7.5,7.5,0,0,0,10.606-10.606Z"/>
      </g>
    </g>
    <g id="Group_158" data-name="Group 158">
      <g id="Group_157" data-name="Group 157">
        <path id="Path_7719" data-name="Path 7719" class="cls-1" d="M167.884,396.853a7.5,7.5,0,0,0-7.5,7.5V436.43a7.5,7.5,0,0,0,15,0V404.353A7.5,7.5,0,0,0,167.884,396.853Z"/>
      </g>
    </g>
    <g id="Group_160" data-name="Group 160">
      <g id="Group_159" data-name="Group 159">
        <path id="Path_7720" data-name="Path 7720" class="cls-1" d="M344.306,396.853a7.5,7.5,0,0,0-7.5,7.5V436.43a7.5,7.5,0,1,0,15,0V404.353A7.5,7.5,0,0,0,344.306,396.853Z"/>
      </g>
    </g>
  </g>
</svg>
