<svg xmlns="http://www.w3.org/2000/svg" viewBox="11945 7271 100 100">
  <defs>
    <style>
      .cls-1 {
        fill: #85c43f;
      }
    </style>
  </defs>
  <g id="_015-programmer" data-name="015-programmer" transform="translate(11945 7271)">
    <g id="Group_929" data-name="Group 929">
      <g id="Group_928" data-name="Group 928">
        <path id="Path_312" data-name="Path 312" class="cls-1" d="M100,75V28.333A8.343,8.343,0,0,0,91.667,20H73.333V0H70V23.03A23.479,23.479,0,0,0,66.667,18.7V0H63.333V19.388a1.667,1.667,0,0,0,.512,1.2,20,20,0,1,1-18.462-5.032,1.667,1.667,0,0,0,1.283-1.622V10H43.333v2.657A23.231,23.231,0,0,0,32.123,20H8.333A8.343,8.343,0,0,0,0,28.333V75a8.343,8.343,0,0,0,8.333,8.333h27.3L32.3,90H1.667A1.667,1.667,0,0,0,0,91.667C0,100,8.782,100,11.667,100H88.333C91.218,100,100,100,100,91.667A1.667,1.667,0,0,0,98.333,90H67.7l-3.333-6.667h27.3A8.343,8.343,0,0,0,100,75ZM44.92,57.782A23.366,23.366,0,0,0,73.333,35V30H90V70H10V30H27.218A23.293,23.293,0,0,0,44.92,57.782ZM96.465,93.333c-.582,2.052-2.593,3.333-8.132,3.333H11.667c-5.538,0-7.55-1.282-8.132-3.333ZM36.03,90l3.333-6.667H60.637L63.97,90ZM8.333,80a5,5,0,0,1-5-5V28.333a5,5,0,0,1,5-5h21.46a23.167,23.167,0,0,0-1.583,3.333H8.333a1.667,1.667,0,0,0-1.667,1.667V71.667a1.667,1.667,0,0,0,1.667,1.667H91.667a1.667,1.667,0,0,0,1.667-1.667V28.333a1.667,1.667,0,0,0-1.667-1.667H73.333V23.333H91.667a5,5,0,0,1,5,5V75a5,5,0,0,1-5,5Z"/>
      </g>
    </g>
    <g id="Group_931" data-name="Group 931" transform="translate(41.667 26.667)">
      <g id="Group_930" data-name="Group 930">
        <path id="Path_313" data-name="Path 313" class="cls-1" d="M208.333,128a8.333,8.333,0,1,0,8.333,8.333A8.343,8.343,0,0,0,208.333,128Zm0,13.333a5,5,0,1,1,5-5A5,5,0,0,1,208.333,141.333Z" transform="translate(-200 -128)"/>
      </g>
    </g>
    <g id="Group_933" data-name="Group 933" transform="translate(50)">
      <g id="Group_932" data-name="Group 932">
        <path id="Path_314" data-name="Path 314" class="cls-1" d="M246.667,0V12.642a23.317,23.317,0,0,0-3.333-.72V8.333H240v5.085a1.667,1.667,0,0,0,1.54,1.667,19.863,19.863,0,0,1,6.152,1.458A1.667,1.667,0,0,0,250,15V0Z" transform="translate(-240)"/>
      </g>
    </g>
    <g id="Group_935" data-name="Group 935" transform="translate(50)">
      <g id="Group_934" data-name="Group 934">
        <rect id="Rectangle_197" data-name="Rectangle 197" class="cls-1" width="3.333" height="5"/>
      </g>
    </g>
    <g id="Group_937" data-name="Group 937" transform="translate(43.333 3.333)">
      <g id="Group_936" data-name="Group 936">
        <rect id="Rectangle_198" data-name="Rectangle 198" class="cls-1" width="3.333" height="3.333"/>
      </g>
    </g>
    <g id="Group_939" data-name="Group 939" transform="translate(33.333 18.333)">
      <g id="Group_938" data-name="Group 938">
        <path id="Path_315" data-name="Path 315" class="cls-1" d="M191.667,99.667h-2.64c-.028-.068-.055-.137-.083-.2L190.81,97.6a1.667,1.667,0,0,0,0-2.357L186.1,90.523a1.715,1.715,0,0,0-2.357,0l-1.867,1.867-.205-.083v-2.64A1.667,1.667,0,0,0,180,88h-6.667a1.667,1.667,0,0,0-1.667,1.667v2.64l-.205.083L169.6,90.523a1.667,1.667,0,0,0-2.357,0l-4.715,4.715a1.667,1.667,0,0,0,0,2.357l1.867,1.867c-.028.068-.057.137-.083.2h-2.64A1.667,1.667,0,0,0,160,101.333V108a1.667,1.667,0,0,0,1.667,1.667h2.64c.028.068.055.137.083.205l-1.867,1.867a1.667,1.667,0,0,0,0,2.357l4.715,4.715a1.715,1.715,0,0,0,2.357,0l1.867-1.867.205.083v2.64a1.667,1.667,0,0,0,1.667,1.667H180a1.667,1.667,0,0,0,1.667-1.667v-2.64l.205-.083,1.867,1.867a1.667,1.667,0,0,0,2.357,0l4.715-4.715a1.667,1.667,0,0,0,0-2.357l-1.867-1.867c.028-.068.057-.137.083-.205h2.64A1.667,1.667,0,0,0,193.333,108v-6.667A1.667,1.667,0,0,0,191.667,99.667ZM190,106.335h-2.157a1.666,1.666,0,0,0-1.6,1.192,9.882,9.882,0,0,1-.782,1.9,1.667,1.667,0,0,0,.287,1.973l1.522,1.522-2.357,2.353-1.522-1.522a1.667,1.667,0,0,0-1.973-.287,9.881,9.881,0,0,1-1.9.782,1.666,1.666,0,0,0-1.192,1.6V118H175v-2.157a1.666,1.666,0,0,0-1.192-1.6,9.882,9.882,0,0,1-1.9-.782,1.667,1.667,0,0,0-1.973.287l-1.522,1.522-2.355-2.357,1.522-1.522a1.667,1.667,0,0,0,.287-1.973,9.882,9.882,0,0,1-.782-1.9,1.667,1.667,0,0,0-1.6-1.19h-2.157V103h2.157a1.666,1.666,0,0,0,1.6-1.192,9.881,9.881,0,0,1,.782-1.9,1.667,1.667,0,0,0-.287-1.973l-1.522-1.522,2.357-2.357,1.522,1.522a1.667,1.667,0,0,0,1.973.287,9.881,9.881,0,0,1,1.9-.782,1.667,1.667,0,0,0,1.19-1.6V91.333h3.333V93.49a1.666,1.666,0,0,0,1.192,1.6,9.881,9.881,0,0,1,1.9.782,1.667,1.667,0,0,0,1.973-.287l1.522-1.522,2.357,2.357-1.522,1.522a1.667,1.667,0,0,0-.287,1.973,9.882,9.882,0,0,1,.782,1.9,1.666,1.666,0,0,0,1.6,1.192H190Z" transform="translate(-160 -88)"/>
      </g>
    </g>
    <g id="Group_941" data-name="Group 941" transform="translate(13.334 45.488)">
      <g id="Group_940" data-name="Group 940">
        <path id="Path_316" data-name="Path 316" class="cls-1" d="M75.18,220.7l-2.357-2.357-8.333,8.333a1.667,1.667,0,0,0,0,2.357l8.333,8.333,2.357-2.357-7.155-7.155Z" transform="translate(-64.002 -218.344)"/>
      </g>
    </g>
    <g id="Group_943" data-name="Group 943" transform="translate(75.488 45.488)">
      <g id="Group_942" data-name="Group 942">
        <path id="Path_317" data-name="Path 317" class="cls-1" d="M373.034,226.677l-8.333-8.333-2.357,2.357,7.155,7.155-7.155,7.155,2.357,2.357,8.333-8.333A1.667,1.667,0,0,0,373.034,226.677Z" transform="translate(-362.344 -218.344)"/>
      </g>
    </g>
  </g>
</svg>
