<svg xmlns="http://www.w3.org/2000/svg" viewBox="12343 7271 99.999 100">
  <defs>
    <style>
      .cls-1 {
        fill: #85c43f;
      }
    </style>
  </defs>
  <g id="_011-global" data-name="011-global" transform="translate(12342.998 7271)">
    <g id="Group_863" data-name="Group 863" transform="translate(0.002 0)">
      <path id="Path_293" data-name="Path 293" class="cls-1" d="M63.335,0A36.3,36.3,0,0,0,38.378,9.913,23.278,23.278,0,0,0,6.668,31.667V35a1.667,1.667,0,0,0,1.667,1.667,1.675,1.675,0,0,0,.267-.042,26.6,26.6,0,0,0,9.3,17.333c.142.118.293.22.438.333v6.175l-13.86,4.62a1.667,1.667,0,0,0-1.13,1.407L.011,98.16A1.667,1.667,0,0,0,1.5,99.991a1.7,1.7,0,0,0,.172.009H58.335A1.667,1.667,0,0,0,60,98.332c0-.055,0-.11-.008-.165L57.325,72.815a35.848,35.848,0,0,0,6.01.518A36.667,36.667,0,0,0,63.335,0Zm-45,96.667H3.518L6.546,67.908,18.335,63.98ZM57.11,3.928l4.178,10.447a3.345,3.345,0,0,0,3.643,2.048l7.833-1.3,7.118,7.12L78.473,30.7l-14,9.8L63.53,35.79a3.318,3.318,0,0,0-2.7-2.623l-7.5-1.333v-.167a23.333,23.333,0,0,0-11.707-20.2A32.959,32.959,0,0,1,57.11,3.928ZM10,31.667a20,20,0,0,1,40,0H45a8.343,8.343,0,0,1-8.333-8.333A1.666,1.666,0,0,0,34.64,21.7l-1,.223A71.7,71.7,0,0,0,10,31.845v-.178Zm11.667,65V74.535l5.907-1.968L23.393,87.9a1.666,1.666,0,0,0,.117,1.183L27.3,96.667Zm0-25.647V67.7l3.988,2Zm5.108,17.138L30,76.333l3.225,11.825L30,94.607Zm11.558,8.508H32.7l3.793-7.588a1.666,1.666,0,0,0,.117-1.183L32.426,72.562l5.908,1.973V96.667Zm0-25.647-3.988-1.333,3.988-1.99Zm0-7.052L30,68.135l-8.333-4.167V56.383a18.774,18.774,0,0,0,16.667,0ZM39.971,51.39a15.569,15.569,0,0,1-19.938,0,23.333,23.333,0,0,1-8.277-16.528l-.013-.167A68.366,68.366,0,0,1,33.515,25.37,11.687,11.687,0,0,0,45,35h3.245A23.3,23.3,0,0,1,39.971,51.39Zm1.7,45.277V63.98l11.788,3.928,3.028,28.758ZM63.335,70a32.949,32.949,0,0,1-6.377-.667l-.3-2.848a1.667,1.667,0,0,0-1.13-1.407l-13.86-4.612V54.285c.145-.113.295-.215.438-.333a26.666,26.666,0,0,0,9.478-18.87V35h.083a1.584,1.584,0,0,0,.192-.038l8.4,1.482.945,4.723A3.26,3.26,0,0,0,64.02,43.8a3.3,3.3,0,0,0-2.157,3.417l1.2,13.235a3.333,3.333,0,0,0,5.368,2.333L79.8,53.945a3.343,3.343,0,0,0,.727-4.478l-2.048-3.075a3.334,3.334,0,0,0-2.362-1.46l-10.5-1.312a3.313,3.313,0,0,0,.753-.372l14-9.8a3.36,3.36,0,0,0,1.378-2.185l1.41-8.46a3.333,3.333,0,0,0-.932-2.908L75.12,12.762a3.333,3.333,0,0,0-2.9-.928l-7.833,1.305L60.515,3.472c.937-.08,1.873-.138,2.82-.138A33.283,33.283,0,0,1,90.383,17.262l-2.667,2.667a3.323,3.323,0,0,0-.957,2.725l1.555,13.975L86.9,45.112a3.333,3.333,0,0,0,1.977,3.61l4.645,1.99A33.347,33.347,0,0,1,63.335,70Zm1.843-23.09L75.7,48.225l2.05,3.077L66.385,60.145Zm25.017-1.253,1.417-8.49a3.338,3.338,0,0,0,.023-.907L90.08,22.278l2.155-2.155a32.942,32.942,0,0,1,2.548,27.5Z" transform="translate(-0.002 0)"/>
    </g>
  </g>
</svg>
