<svg xmlns="http://www.w3.org/2000/svg" viewBox="12741 7271 99.995 100">
  <defs>
    <style>
      .cls-1 {
        fill: #85c43f;
      }
    </style>
  </defs>
  <g id="_001-connection" data-name="001-connection" transform="translate(12740.989 7271)">
    <g id="Group_629" data-name="Group 629" transform="translate(0.011 0)">
      <path id="Path_206" data-name="Path 206" class="cls-1" d="M77.514,53.35,66.7,39.584a23.231,23.231,0,0,0,6.544-14.594H89.988v1.833a8.33,8.33,0,1,0,3.332,0v-3.5a1.666,1.666,0,0,0-1.666-1.666H73.244A23.174,23.174,0,0,0,68.363,8.989l2.324-2.324H90.3a5,5,0,1,0,0-3.332H70a1.666,1.666,0,0,0-1.178.488l-2.69,2.69A23.273,23.273,0,0,0,26.768,21.659H12.774L7.328,9.409a4.981,4.981,0,1,0-3.45.443L10.167,24a1.666,1.666,0,0,0,1.523.988H26.768a23.221,23.221,0,0,0,6.426,14.457L19.129,53.511A16.649,16.649,0,1,0,14.2,86.443q.412.062.826.1V94.96a1.666,1.666,0,0,0,1.666,1.666h15.3a5,5,0,1,0,0-3.332H18.353V86.545a16.649,16.649,0,0,0,4.5-32.039L35.679,41.678a23.17,23.17,0,0,0,28.519.115l9.243,11.765a23.333,23.333,0,1,0,4.073-.208ZM96.652,34.986a5,5,0,1,1-5-5A5,5,0,0,1,96.652,34.986ZM94.986,3.333A1.666,1.666,0,1,1,93.32,5,1.666,1.666,0,0,1,94.986,3.333ZM5.026,6.665A1.666,1.666,0,1,1,6.691,5,1.666,1.666,0,0,1,5.026,6.665ZM36.678,93.294a1.666,1.666,0,1,1-1.666,1.666A1.666,1.666,0,0,1,36.678,93.294ZM23.351,81.5a13.214,13.214,0,0,1-13.328,0V78.3a6.664,6.664,0,1,1,13.328,0Zm-10-16.523a3.332,3.332,0,1,1,3.332,3.332A3.332,3.332,0,0,1,13.355,64.973Zm13.328-3.847a13.327,13.327,0,0,1,0,17.631V78.3a10,10,0,0,0-5.176-8.751,6.664,6.664,0,1,0-9.641,0A10,10,0,0,0,6.691,78.3v.456a13.327,13.327,0,1,1,19.991-17.63Zm34.985-21.6a19.85,19.85,0,0,1-23.323,0V35.486a5.5,5.5,0,0,1,5.5-5.5h3.7l-2.417,6.044a1.666,1.666,0,0,0,.37,1.8l3.332,3.332a1.666,1.666,0,0,0,2.356,0l3.332-3.332a1.666,1.666,0,0,0,.37-1.8l-2.416-6.044h3.7a5.5,5.5,0,0,1,5.5,5.5v4.038ZM50.244,12.471a1.657,1.657,0,0,0-.152.33c-.843,2.527-5.394,3.485-8.324,3.763.447-5.583,3.074-8.233,8.238-8.233,4.728,0,7.33,2.236,8.075,6.9L52.53,11.9A1.666,1.666,0,0,0,50.244,12.471Zm2.059,3.18,5.954,3.573c-.668,4.078-5.694,7.432-8.251,7.432a10.5,10.5,0,0,1-8.1-6.75C44.76,19.671,49.909,18.807,52.3,15.651Zm-.921,20.6-1.376,1.378L48.63,36.251l1.376-3.443Zm5.892-9.518a11.566,11.566,0,0,0,4.393-8.406C61.668,7.312,55.325,5,50.006,5S38.344,7.312,38.344,18.327a11.565,11.565,0,0,0,4.393,8.411,8.8,8.8,0,0,0-7.725,8.748V36.5A19.991,19.991,0,1,1,65,36.5V35.486A8.8,8.8,0,0,0,57.274,26.733Zm31.048,66.1a19.85,19.85,0,0,1-23.323,0V88.8a5.5,5.5,0,0,1,5.5-5.5h3.7l-2.417,6.044a1.666,1.666,0,0,0,.37,1.8l3.332,3.332a1.666,1.666,0,0,0,2.356,0l3.332-3.332a1.666,1.666,0,0,0,.37-1.8L79.122,83.3h3.7a5.5,5.5,0,0,1,5.5,5.5ZM78.958,68.962v0l5.954,3.573c-.668,4.08-5.694,7.433-8.251,7.433a10.5,10.5,0,0,1-8.1-6.75C71.415,72.981,76.564,72.117,78.958,68.962Zm-10.535.913h0c.446-5.583,3.074-8.233,8.238-8.233,4.728,0,7.33,2.236,8.075,6.9L79.185,65.21a1.666,1.666,0,0,0-2.437.9C75.9,68.638,71.353,69.6,68.423,69.874Zm9.614,19.686-1.376,1.378-1.376-1.378,1.376-3.444Zm13.617.253V88.8a8.8,8.8,0,0,0-7.725-8.753,11.566,11.566,0,0,0,4.393-8.406c0-11.015-6.342-13.328-11.662-13.328S65,60.622,65,71.637a11.565,11.565,0,0,0,4.393,8.411A8.8,8.8,0,0,0,61.667,88.8v1.013a19.989,19.989,0,1,1,29.987.005Z" transform="translate(-0.011 0)"/>
    </g>
  </g>
</svg>
