<svg xmlns="http://www.w3.org/2000/svg" viewBox="2741.942 7423.942 90.115 90.115">
  <defs>
    <style>
      .cls-1 {
        fill: #85c43f;
      }
    </style>
  </defs>
  <g id="_008-customer-support-1" data-name="008-customer-support-1" transform="translate(2741.942 7423.942)">
    <g id="Group_794" data-name="Group 794">
      <path id="Path_272" data-name="Path 272" class="cls-1" d="M85.61,16.521H62.289A21.006,21.006,0,0,0,45.058,7.51v-3A4.506,4.506,0,0,0,40.552,0H4.506A4.506,4.506,0,0,0,0,4.506V22.529a4.506,4.506,0,0,0,4.506,4.506h3.3L12.365,32.5a1.5,1.5,0,0,0,2.308,0l4.551-5.468H24.1c-.036.5-.077.994-.077,1.5v3a1.388,1.388,0,0,0,1.685,1.473,23.9,23.9,0,0,0,3.888,10.5,6.008,6.008,0,0,1-5.38-4.468h1.311v-3h-3a1.5,1.5,0,0,0-1.5,1.5,9.022,9.022,0,0,0,9.012,9.012h1.952a23.861,23.861,0,0,0,2.154,2.059c.128.107.264.2.4.3V54.49L22.05,58.653a1.5,1.5,0,0,0-1.018,1.268l-3,28.537a1.5,1.5,0,0,0,1.338,1.65,1.466,1.466,0,0,0,.16.008H70.59a1.5,1.5,0,0,0,1.5-1.5c0-.05,0-.1-.008-.149l-3-28.537a1.5,1.5,0,0,0-1.018-1.268L55.571,54.49V48.919c.131-.1.266-.194.4-.3a23.88,23.88,0,0,0,7.453-11.071h1.464l4.555,5.468a1.5,1.5,0,0,0,2.308,0L76.3,37.548H85.61a4.506,4.506,0,0,0,4.506-4.506V21.027A4.506,4.506,0,0,0,85.61,16.521Zm-61.08,7.51H18.523a1.5,1.5,0,0,0-1.155.539l-3.851,4.624L9.666,24.57a1.5,1.5,0,0,0-1.155-.539H4.506a1.5,1.5,0,0,1-1.5-1.5V4.506A1.5,1.5,0,0,1,4.506,3H40.552a1.5,1.5,0,0,1,1.5,1.5V7.75A21.057,21.057,0,0,0,24.529,24.031ZM34.544,87.111H21.192L23.921,61.2l10.623-3.54Zm3,0V67.167l5.323-1.774L39.1,79.211a1.5,1.5,0,0,0,.105,1.066l3.42,6.834Zm0-23.112V61.005l3.594,1.8Zm4.6,15.444,2.906-10.656,2.9,10.656-2.9,5.811Zm10.416,7.667H47.488l3.418-6.838a1.5,1.5,0,0,0,.105-1.066L47.243,65.389l5.324,1.778Zm0-23.112-3.594-1.2,3.594-1.793Zm0-8.429v2.076L45.058,61.4l-7.51-3.755V50.81a16.915,16.915,0,0,0,15.019,0ZM66.194,61.2l2.729,25.916H55.571V57.656ZM54.041,46.31A14.02,14.02,0,0,1,36.4,46.56h7.154v-3H33.365a20.888,20.888,0,0,1-4.76-12.286,61.607,61.607,0,0,1,19.618-8.4A10.531,10.531,0,0,0,58.575,31.54h2.932A20.856,20.856,0,0,1,54.041,46.31Zm4.534-17.774a7.519,7.519,0,0,1-7.51-7.51,1.5,1.5,0,0,0-1.828-1.467l-.9.2a64.611,64.611,0,0,0-21.3,8.936v-.161a18.023,18.023,0,0,1,36.046,0Zm28.537,4.506a1.5,1.5,0,0,1-1.5,1.5H75.6a1.5,1.5,0,0,0-1.155.539L70.59,39.708l-3.851-4.623a1.5,1.5,0,0,0-1.155-.541H64.159a24,24,0,0,0,.351-3h.072a1.5,1.5,0,0,0,1.5-1.5v-1.5a20.863,20.863,0,0,0-2.058-9.012H85.61a1.5,1.5,0,0,1,1.5,1.5Z"/>
    </g>
  </g>
</svg>
