<?xml version="1.0" encoding="utf-8"?>
<!-- Generator: Adobe Illustrator 22.0.1, SVG Export Plug-In . SVG Version: 6.00 Build 0)  -->
<svg version="1.1" id="Layer_1" xmlns="http://www.w3.org/2000/svg" xmlns:xlink="http://www.w3.org/1999/xlink" x="0px" y="0px"
	 viewBox="0 0 11 13" style="enable-background:new 0 0 11 13;" xml:space="preserve">
<style type="text/css">
	.st0{enable-background:new    ;}
	.st1{fill:#85C43F;}
</style>
<g class="st0">
	<path class="st1" d="M9.8,1.8c0.3,0,0.6,0.1,0.8,0.3s0.3,0.5,0.3,0.8v6.5c0,0.3-0.1,0.6-0.3,0.8s-0.5,0.3-0.8,0.3H1.1
		c-0.3,0-0.6-0.1-0.8-0.3C0.1,9.9,0,9.7,0,9.4V2.9c0-0.3,0.1-0.6,0.3-0.8c0.2-0.2,0.5-0.3,0.8-0.3H9.8z M9.8,4V2.9L5.4,5.6L1.1,2.9
		V4l4.3,2.7L9.8,4z"/>
</g>
</svg>
