<?xml version="1.0" encoding="utf-8"?>
<!-- Generator: Adobe Illustrator 22.0.1, SVG Export Plug-In . SVG Version: 6.00 Build 0)  -->
<svg version="1.1" id="Layer_1" xmlns="http://www.w3.org/2000/svg" xmlns:xlink="http://www.w3.org/1999/xlink" x="0px" y="0px"
	 viewBox="0 0 8 13" style="enable-background:new 0 0 8 13;" xml:space="preserve">
<style type="text/css">
	.st0{enable-background:new    ;}
	.st1{fill:#85C43F;}
</style>
<g class="st0">
	<path class="st1" d="M1.1,1.8c0.7-0.7,1.6-1.1,2.7-1.1c1,0,1.9,0.4,2.7,1.1c0.7,0.7,1.1,1.6,1.1,2.7c0,0.5-0.1,1.1-0.4,1.8
		s-0.6,1.3-1,1.9C5.9,8.8,5.5,9.4,5.1,9.9c-0.4,0.5-0.7,0.9-0.9,1.2l-0.4,0.4c-0.1-0.1-0.2-0.3-0.4-0.5c-0.2-0.2-0.5-0.6-0.9-1.2
		S1.7,8.7,1.3,8.2C1,7.6,0.7,7,0.4,6.3C0.1,5.6,0,5,0,4.5C0,3.5,0.4,2.6,1.1,1.8z M2.8,5.5c0.3,0.3,0.6,0.4,1,0.4
		c0.4,0,0.7-0.1,1-0.4c0.3-0.3,0.4-0.6,0.4-1S5,3.8,4.7,3.5c-0.3-0.3-0.6-0.4-1-0.4c-0.4,0-0.7,0.1-1,0.4c-0.3,0.3-0.4,0.6-0.4,1
		S2.6,5.2,2.8,5.5z"/>
</g>
</svg>
