<?xml version="1.0" encoding="utf-8"?>
<!-- Generator: Adobe Illustrator 22.0.1, SVG Export Plug-In . SVG Version: 6.00 Build 0)  -->
<svg version="1.1" id="Layer_1" xmlns="http://www.w3.org/2000/svg" xmlns:xlink="http://www.w3.org/1999/xlink" x="0px" y="0px"
	 viewBox="0 0 10 13" style="enable-background:new 0 0 10 13;" xml:space="preserve">
<style type="text/css">
	.st0{enable-background:new    ;}
	.st1{fill:#85C43F;}
</style>
<g class="st0">
	<path class="st1" d="M2,5.5C2.8,7,3.9,8.2,5.5,9l1.2-1.2c0.2-0.2,0.3-0.2,0.6-0.1C7.9,7.9,8.5,8,9.2,8c0.1,0,0.3,0.1,0.4,0.2
		s0.2,0.2,0.2,0.4v1.9c0,0.1-0.1,0.3-0.2,0.4S9.4,11,9.2,11C7.5,11,6,10.6,4.6,9.8C3.2,8.9,2.1,7.8,1.2,6.4C0.4,5,0,3.5,0,1.8
		c0-0.1,0.1-0.3,0.2-0.4c0.1-0.1,0.2-0.2,0.4-0.2h1.9c0.2,0,0.3,0.1,0.4,0.2S3,1.6,3,1.8c0,0.7,0.1,1.3,0.3,1.9
		c0.1,0.2,0,0.4-0.1,0.6L2,5.5z"/>
</g>
</svg>
