<svg xmlns="http://www.w3.org/2000/svg" viewBox="-9892 -10845 388.439 512.002">
  <defs>
    <style>
      .cls-1 {
        fill: #fff;
      }
    </style>
  </defs>
  <g id="_003-medal" data-name="003-medal" transform="translate(-9953.781 -10845)">
    <g id="Group_162" data-name="Group 162">
      <g id="Group_161" data-name="Group 161">
        <path id="Path_7721" data-name="Path 7721" class="cls-1" d="M435.4,466.527h0Z"/>
      </g>
    </g>
    <g id="Group_164" data-name="Group 164">
      <g id="Group_163" data-name="Group 163">
        <path id="Path_7722" data-name="Path 7722" class="cls-1" d="M449.294,460.945,424.9,400.23a7.488,7.488,0,0,0-13.9,5.583l22.546,56.116-43.009-13.5a12.669,12.669,0,0,0-14.85,5.968L353.981,493.9,296.255,350.215a30.678,30.678,0,0,0,16.371-.357c12.111-3.933,19.1-15.885,25.26-26.43,4.006-6.854,8.149-13.941,12.892-17.392,4.19-3.05,10.816-4.8,17.6-6.329l22.551,56.131a7.488,7.488,0,0,0,13.9-5.583L383.107,296.2c8.345-2.407,16.022-5.926,21.113-12.921,7.316-10.052,6.065-23.074,4.855-35.666-.773-8.05-1.573-16.375.317-22.194,1.758-5.415,6.9-11.18,12.342-17.283,8.19-9.183,17.472-19.592,17.472-32.557s-9.282-23.374-17.472-32.557c-5.443-6.1-10.584-11.868-12.342-17.283-1.89-5.82-1.09-14.144-.317-22.194,1.21-12.592,2.461-25.614-4.855-35.666-7.391-10.156-20.237-12.986-32.659-15.721-7.835-1.726-15.937-3.51-20.782-7.036-4.743-3.451-8.886-10.539-12.892-17.393-6.164-10.545-13.15-22.5-25.261-26.43-11.622-3.771-23.5,1.39-34.987,6.384-7.529,3.273-15.314,6.657-21.636,6.657S241.9,10.954,234.367,7.681C222.881,2.687,211-2.474,199.379,1.3c-12.111,3.933-19.1,15.885-25.26,26.43-4.006,6.854-8.149,13.941-12.892,17.393-4.845,3.526-12.947,5.311-20.783,7.036-12.422,2.736-25.267,5.565-32.659,15.721-7.316,10.053-6.065,23.074-4.855,35.667.773,8.05,1.573,16.375-.317,22.194-1.758,5.414-6.9,11.179-12.342,17.281C82.081,152.2,72.8,162.612,72.8,175.577s9.283,23.375,17.473,32.558c5.443,6.1,10.583,11.868,12.342,17.282,1.889,5.82,1.09,14.144.317,22.194-1.21,12.592-2.461,25.614,4.855,35.666,5.091,6.995,12.768,10.514,21.113,12.921L62.708,460.945A12.629,12.629,0,0,0,78.21,477.7l45.9-14.412,23.172,42.164A12.512,12.512,0,0,0,158.324,512c.261,0,.524-.008.787-.023a12.527,12.527,0,0,0,10.959-7.9l64.574-160.725c7.442-3.235,15.113-6.536,21.357-6.536s13.915,3.3,21.357,6.536l64.574,160.726a12.522,12.522,0,0,0,10.959,7.9c.264.016.526.023.787.023a12.511,12.511,0,0,0,11.041-6.547l23.172-42.164,45.9,14.412a12.629,12.629,0,0,0,15.5-16.758ZM158.021,493.9l-21.71-39.5a12.672,12.672,0,0,0-11.093-6.545,12.533,12.533,0,0,0-3.759.576l-43.008,13.5,65.175-162.222c6.783,1.533,13.409,3.279,17.6,6.329,4.743,3.451,8.886,10.538,12.892,17.392,6.164,10.545,13.15,22.5,25.261,26.43a27.067,27.067,0,0,0,8.425,1.3,36.882,36.882,0,0,0,7.942-.934ZM256,321.841c-9.436,0-18.673,4.016-27.606,7.9-9.341,4.061-18.162,7.895-24.392,5.873-6.685-2.17-11.674-10.7-16.957-19.742-4.784-8.185-9.731-16.648-17.009-21.945-7.377-5.368-17.034-7.5-26.373-9.552-10.142-2.235-19.722-4.344-23.772-9.909-3.974-5.461-3.043-15.157-2.057-25.421.919-9.573,1.87-19.472-.98-28.252-2.73-8.407-9.175-15.635-15.408-22.624-7.032-7.886-13.674-15.333-13.674-22.591s6.642-14.705,13.674-22.59c6.233-6.99,12.679-14.217,15.408-22.624,2.851-8.78,1.9-18.679.98-28.252-.986-10.264-1.918-19.961,2.057-25.422,4.05-5.564,13.63-7.674,23.772-9.909,9.339-2.056,19-4.184,26.373-9.552,7.278-5.3,12.225-13.76,17.009-21.945,5.282-9.036,10.271-17.572,16.956-19.742,6.231-2.028,15.052,1.813,24.393,5.873,8.933,3.883,18.17,7.9,27.606,7.9s18.673-4.016,27.606-7.9c9.341-4.061,18.165-7.894,24.392-5.873,6.685,2.17,11.675,10.706,16.957,19.742,4.784,8.185,9.731,16.648,17.009,21.945,7.377,5.368,17.034,7.5,26.372,9.552,10.142,2.235,19.722,4.344,23.772,9.909,3.974,5.461,3.043,15.157,2.057,25.421-.919,9.573-1.87,19.472.98,28.252,2.73,8.408,9.175,15.636,15.409,22.625,7.031,7.885,13.673,15.332,13.673,22.59s-6.641,14.706-13.673,22.59c-6.234,6.99-12.679,14.217-15.409,22.625-2.851,8.78-1.9,18.678-.98,28.252.986,10.265,1.917,19.961-2.057,25.421-4.05,5.564-13.63,7.674-23.772,9.909-9.339,2.056-19,4.184-26.373,9.552-7.277,5.3-12.224,13.76-17.008,21.945-5.282,9.036-10.271,17.572-16.956,19.742-6.232,2.026-15.052-1.813-24.393-5.873C274.674,325.857,265.437,321.841,256,321.841Z"/>
      </g>
    </g>
    <g id="Group_166" data-name="Group 166">
      <g id="Group_165" data-name="Group 165">
        <path id="Path_7723" data-name="Path 7723" class="cls-1" d="M256,64.585c-2.668,0-5.365.1-8.015.286a7.488,7.488,0,0,0,1.067,14.937c2.3-.164,4.634-.247,6.949-.247a95.989,95.989,0,1,1-52.766,15.785,7.488,7.488,0,0,0-8.242-12.5A111.009,111.009,0,1,0,256,64.585Z"/>
      </g>
    </g>
  </g>
</svg>
