<svg xmlns="http://www.w3.org/2000/svg" viewBox="-9170 -10836 356.32 407.772">
  <defs>
    <style>
      .cls-1 {
        fill: #fff;
      }
    </style>
  </defs>
  <g id="_004-gift" data-name="004-gift" transform="translate(-9195.726 -10836)">
    <g id="Group_167" data-name="Group 167">
      <path id="Path_7724" data-name="Path 7724" class="cls-1" d="M362.846,106.332h-120.8l72.56-30.4a8,8,0,0,0,0-14.56l-80.88-39.2a8,8,0,0,0-10.688,3.711,7.907,7.907,0,0,0-.432,1.089l-21.84,69.44-66.64-93.04a7.972,7.972,0,0,0-13.52.8l-34.56,63.76a8,8,0,0,0,4.16,11.28l70.72,27.36h-116a19.2,19.2,0,0,0-19.2,19.2v53.2a19.2,19.2,0,0,0,19.2,18.88h14a19,19,0,0,0,0,3.2v187.52a19.2,19.2,0,0,0,19.2,19.2h251.52a19.2,19.2,0,0,0,19.2-19.2V201.052a19,19,0,0,0,0-3.2h14a19.2,19.2,0,0,0,19.2-19.2h0v-53.12A19.2,19.2,0,0,0,362.846,106.332Zm-317.92,75.6a3.2,3.2,0,0,1-3.2-3.2v-53.2a3.2,3.2,0,0,1,3.2-3.2h112v59.6Zm112.24,209.84H77.806a3.2,3.2,0,0,1-3.2-3.2V201.052a3.2,3.2,0,0,1,3.2-3.2h79.36Zm77.92-351.12,56.64,27.28-75.2,32Zm-130.72,26.64,24.16-44.24,53.04,74.08Zm130,324.48h-61.2V197.852h61.2Zm0-209.84h-61.28v-59.6h61.28Zm98.56,206.64a3.2,3.2,0,0,1-3.2,3.2h-79.36V197.852h79.36a3.2,3.2,0,0,1,3.12,3.2l.08.08v187.44Zm32.88-209.84a3.2,3.2,0,0,1-3.2,3.2h-112v-59.6h112a3.2,3.2,0,0,1,3.12,3.2h.08v53.2Z"/>
    </g>
  </g>
</svg>
