<svg xmlns="http://www.w3.org/2000/svg" viewBox="-11580 -10864 512.002 462.861">
  <defs>
    <style>
      .cls-1 {
        fill: #fff;
      }
    </style>
  </defs>
  <g id="_001-team-1" data-name="001-team-1" transform="translate(-11580 -10888.569)">
    <g id="Group_146" data-name="Group 146">
      <path id="Path_7713" data-name="Path 7713" class="cls-1" d="M489.267,293.643a70.569,70.569,0,0,0-22.836-14.6l-34.514-14.381-24.173-15.952V240.6a65.9,65.9,0,0,0,34.54-47.837,31,31,0,0,0,18.758-51.677V111.347A86.875,86.875,0,0,0,374.265,24.57h-6.558a86.713,86.713,0,0,0-83.854,64.416A90.788,90.788,0,0,0,260.1,85.821h-6.909a90.719,90.719,0,0,0-24.952,3.506,86.711,86.711,0,0,0-83.949-64.758h-6.558a86.875,86.875,0,0,0-86.777,86.777v29.739a31,31,0,0,0,18.757,51.677,65.9,65.9,0,0,0,34.54,47.837v8.115L80.084,264.665,45.569,279.046a70.56,70.56,0,0,0-22.836,14.6C12.362,303.435,0,321.043,0,349.311v49.134a8.094,8.094,0,0,0,8.084,8.1H109.6a89.793,89.793,0,0,0-2.4,21.021v51.772a8.1,8.1,0,0,0,8.084,8.1H305.224a8.084,8.084,0,1,0,0-16.168H287.912l-9.761-60.512,3.816-10.163,5.767,4.245a8.081,8.081,0,0,0,12.06-2.974l21.956-45.128,29.293,12.207q.264.109.535.2c.371.124,37.055,12.978,37.055,58.423v43.7H355.1V425.206a8.084,8.084,0,1,0-16.168,0v46.057h-8.551a8.084,8.084,0,1,0,0,16.168h66.341a8.171,8.171,0,0,0,8.084-8.186V427.56a89.794,89.794,0,0,0-2.4-21.021H503.918a8.166,8.166,0,0,0,8.084-8.18v-49.05C512,321.043,499.638,303.435,489.267,293.643ZM426.954,182.321a49.622,49.622,0,0,1-49.566,49.566H364.88a50.438,50.438,0,0,1-5.218-.286c.019-.459.034-.921.034-1.385a32.125,32.125,0,0,0-8.592-21.888V176.819a90.411,90.411,0,0,0-9.335-40.093c17.73-4.289,38.532-12.5,54.631-28.23,5,10.668,14.336,24.563,30.553,30.714v43.111ZM391.575,246.5v16.524L370.8,284.584l-20.123-19.6c0-.089.014-.176.014-.265V252.537h0a32.349,32.349,0,0,0,4.115-5.277,66.211,66.211,0,0,0,10.072.8h12.508A65.564,65.564,0,0,0,391.575,246.5Zm-48.047-16.28a16,16,0,0,1-4.05,10.635,8.112,8.112,0,0,0-3.655,3.068,15.94,15.94,0,0,1-3.6,1.656V214.86A16.111,16.111,0,0,1,343.528,230.217Zm109.5-68.2a14.866,14.866,0,0,1-9.9,13.987V148.033A14.864,14.864,0,0,1,453.027,162.021ZM299.313,93.726a70.553,70.553,0,0,1,68.393-52.989h6.558a70.689,70.689,0,0,1,70.609,70.609v20.391c-.652-.144-1.307-.275-1.974-.377a8.08,8.08,0,0,0-6.068-6.018c-22.631-5.148-29.591-34.031-29.655-34.3a8.084,8.084,0,0,0-14.435-2.951c-15.158,20.956-40.43,30.1-59.928,34.082a91.582,91.582,0,0,0-33.779-27.581A8,8,0,0,0,299.313,93.726Zm-46.117,8.26H260.1v0a74.919,74.919,0,0,1,74.834,74.833v22.032c-.941-.224-1.9-.411-2.867-.551-.021-.106-.049-.208-.073-.313-.032-.136-.065-.272-.1-.4s-.085-.261-.13-.39c-.04-.113-.079-.226-.124-.338-.055-.137-.116-.27-.179-.4-.047-.1-.094-.2-.147-.3-.068-.13-.14-.255-.214-.38-.059-.1-.116-.2-.18-.3-.074-.114-.154-.224-.234-.335s-.149-.205-.227-.3-.158-.19-.241-.284-.184-.209-.281-.309c-.079-.081-.161-.157-.243-.235-.109-.1-.217-.2-.331-.3-.083-.07-.169-.136-.255-.2-.117-.092-.237-.184-.361-.269-.1-.067-.194-.127-.293-.19-.119-.076-.239-.151-.363-.221s-.238-.125-.359-.185-.22-.111-.334-.161c-.147-.065-.3-.121-.449-.177-.1-.036-.189-.073-.286-.1-.171-.056-.346-.1-.522-.147-.068-.017-.135-.042-.2-.057-24.118-5.488-31.506-36.18-31.573-36.468a8.084,8.084,0,0,0-14.434-2.952c-28.1,38.842-89.49,39.219-90.419,39.219-.017,0-.026,0-.039,0a8.052,8.052,0,0,0-.825.042c-.064.006-.124.02-.188.028-.206.026-.413.053-.613.094-.075.015-.148.039-.222.057-.185.043-.372.086-.552.141-.1.03-.189.07-.283.1-.153.054-.308.1-.457.167-.12.051-.233.111-.349.168s-.24.109-.356.171-.23.139-.345.209-.217.125-.32.2-.219.162-.327.244-.2.142-.294.22-.2.179-.3.268-.189.164-.277.251-.175.191-.262.287-.178.186-.26.286-.153.2-.229.3-.163.207-.237.317-.13.213-.2.32-.144.226-.209.344-.111.227-.166.342-.122.239-.175.363-.088.239-.133.359-.1.252-.14.383-.066.25-.1.375-.074.263-.1.4c-.005.025-.009.051-.014.075a31.8,31.8,0,0,0-3.18.623v-22.1A74.918,74.918,0,0,1,253.2,101.986Zm3.271,257.99L234.81,338.883c.009-.152.023-.3.023-.454V318.683a68.736,68.736,0,0,0,15.384,1.755H263.4a68.821,68.821,0,0,0,14.94-1.651c.148-.005.3-.015.443-.022v18.05Zm11.968,30.654-4.207,11.206H249.164l-4.755-11.35,11.915-8.77Zm-120.59-66.149H134.108L130.325,314.4l11-8.093,10.8,7.951Zm1.068,32.124a77.342,77.342,0,0,0-17.9,12.617c-.092.086-.183.177-.275.264l4.652-28.836h10.946Zm-7.715-72.02-20.773-21.563V246.5a65.693,65.693,0,0,0,14.188,1.559h12.508a66.378,66.378,0,0,0,11.542-1.012,32.4,32.4,0,0,0,2.645,3.7v13.973c0,.089.011.176.013.265ZM175.033,274.2a8.061,8.061,0,0,0,2.377-6.758l7.1,4.685a68.17,68.17,0,0,0,2.726,7.2L172.656,309.3l-19.17-14.11Zm-4.952-43.978a16.112,16.112,0,0,1,11.3-15.359v30.717A16.112,16.112,0,0,1,170.081,230.218Zm-4.556,93.9,5.363,3.946a8.081,8.081,0,0,0,12.06-2.974l14.36-29.518a69.256,69.256,0,0,0,21.356,17.17v8.415l-25.916,17.1a8.226,8.226,0,0,0-1.044.345l-27.469,11.447-2.662-16.5Zm53.382,16.25a8.073,8.073,0,0,0,2.2,7.734l23.071,22.474-21.03,15.479-17.855-36.7Zm44.49-36.1H250.218a52.721,52.721,0,0,1-52.662-52.661v-44c17.342-1.258,58.367-7.11,86.011-34.522,5.193,11.295,15.083,26.3,32.492,32.786v45.735h0A52.721,52.721,0,0,1,263.4,304.269ZM68.877,176.008a14.829,14.829,0,0,1,0-27.975Zm8.3-50.87H77.14c-.03,0-.059,0-.089,0s-.059,0-.089,0a8.08,8.08,0,0,0-7.859,6.221c-.667.1-1.324.233-1.976.377V111.345a70.689,70.689,0,0,1,70.609-70.609h6.558a70.553,70.553,0,0,1,68.393,52.989,8.157,8.157,0,0,0,.5,1.384,91.508,91.508,0,0,0-27.935,21.26c-9.317-9.712-12.562-23.256-12.592-23.385a8.085,8.085,0,0,0-14.435-2.952c-25.147,34.763-80.24,35.105-81.047,35.105Zm7.87,57.183V140.958c15.9-1.212,52.027-6.614,76.872-30.622a64.711,64.711,0,0,0,13.593,19.137,90.451,90.451,0,0,0-13.318,47.346v31.847a32.118,32.118,0,0,0-8.28,21.549c0,.4.016.791.03,1.186a50.117,50.117,0,0,1-6.823.485H134.612A49.62,49.62,0,0,1,85.046,182.321Zm19.394,85.643a8.036,8.036,0,0,0,2.077,3.927l22.527,23.384L109.989,309.3l-16.572-34.06Zm6.553,122.408H63.341v-43.3a8.084,8.084,0,0,0-16.168,0v43.3H16.168V349.311c0-42.456,33.5-54.575,34.887-55.057.18-.061.359-.127.535-.2L79.031,282.62,99.7,325.1a8.081,8.081,0,0,0,12.06,2.974l5.035-3.706,3.392,9.034Zm114.7,80.892H173.073V425.206a8.084,8.084,0,0,0-16.168,0v46.057H123.367v-43.7c0-45.061,35.577-57.911,37.056-58.423.18-.061.359-.127.535-.2l29.833-12.432,22.063,45.353a8.087,8.087,0,0,0,5.333,4.313,8.169,8.169,0,0,0,1.935.235,8.074,8.074,0,0,0,4.792-1.574l6.094-4.485,4.425,10.566Zm16.379,0L250.669,418h12.274l8.592,53.259Zm47.424-85.2-6.37-4.689c-.017-.014-.036-.026-.054-.04l-14.471-10.651,24.08-25a8.04,8.04,0,0,0,2.186-4.565l12.484,8.237Zm58.267-36-27.122-11.3-25.671-16.939-.025-.015v-9.051a69.226,69.226,0,0,0,20.324-15.978L329.054,325.1a8.081,8.081,0,0,0,12.06,2.974l5.363-3.946,3.953,9.436ZM339.345,309.3,325.6,281.042a68.308,68.308,0,0,0,3.88-10.231l5.111-3.373a8.062,8.062,0,0,0,2.377,6.758l21.548,20.992Zm41.639,59.926a77.372,77.372,0,0,0-17.9-12.618l2.575-15.954h10.946l4.651,28.836C381.167,369.4,381.075,369.308,380.984,369.222Zm-3.092-44.741H364.156l-4.282-10.219,10.8-7.95,11,8.094Zm5.062-29.207,22.527-23.384a8.03,8.03,0,0,0,2.078-3.927l11.02,7.273-16.57,34.06Zm81.873,95.1v-43.3a8.084,8.084,0,0,0-16.168,0v43.3H401.005l-9.19-56.973,3.391-9.034,5.036,3.706A8.081,8.081,0,0,0,412.3,325.1l20.665-42.477,27.441,11.433c.176.073.355.14.535.2.348.116,34.887,12.217,34.887,55.057v41.061h-31Z"/>
    </g>
  </g>
</svg>
