<svg xmlns="http://www.w3.org/2000/svg" viewBox="-13719 2477 52.998 53">
  <defs>
    <style>
      .cls-1 {
        fill: #fff;
      }

      .cls-2 {
        fill: #00395d;
        opacity: 0.113;
      }
    </style>
  </defs>
  <g id="user" transform="translate(-13719 2476)">
    <path id="Path_2758" data-name="Path 2758" class="cls-1" d="M18.613,42.552l-7.907,4.313a7.106,7.106,0,0,0-1.269.9,26.483,26.483,0,0,0,34.027.088,7.015,7.015,0,0,0-1.394-.934L33.6,42.689A3.229,3.229,0,0,1,31.818,39.8V36.479a12.788,12.788,0,0,0,.8-1.03,19.483,19.483,0,0,0,2.632-5.3,2.659,2.659,0,0,0,1.886-2.53V24.069a2.647,2.647,0,0,0-.886-1.965V16.978S37.3,9,26.5,9s-9.75,7.977-9.75,7.977V22.1a2.644,2.644,0,0,0-.886,1.965v3.546a2.658,2.658,0,0,0,1.226,2.231A17.6,17.6,0,0,0,20.3,36.479v3.24A3.232,3.232,0,0,1,18.613,42.552Z"/>
    <g id="Group_3419" data-name="Group 3419">
      <path id="Path_2759" data-name="Path 2759" class="cls-2" d="M26.953,1A26.483,26.483,0,0,0,9.448,47.76a7.041,7.041,0,0,1,1.257-.894l7.907-4.313A3.23,3.23,0,0,0,20.3,39.718v-3.24a17.58,17.58,0,0,1-3.206-6.633,2.66,2.66,0,0,1-1.226-2.231V24.068a2.647,2.647,0,0,1,.886-1.965V16.977S15.7,9,26.5,9s9.75,7.977,9.75,7.977V22.1a2.644,2.644,0,0,1,.886,1.965v3.546a2.659,2.659,0,0,1-1.886,2.53,19.482,19.482,0,0,1-2.632,5.3,12.788,12.788,0,0,1-.8,1.03V39.8A3.228,3.228,0,0,0,33.6,42.688l8.467,4.233a7.05,7.05,0,0,1,1.39.932A26.494,26.494,0,0,0,26.953,1Z"/>
    </g>
  </g>
</svg>
