<?xml version="1.0" encoding="utf-8"?>
<!-- Generator: Adobe Illustrator 22.0.1, SVG Export Plug-In . SVG Version: 6.00 Build 0)  -->
<svg version="1.1" id="Layer_1" xmlns="http://www.w3.org/2000/svg" xmlns:xlink="http://www.w3.org/1999/xlink" x="0px" y="0px"
	 viewBox="0 0 37.9 30.8" style="enable-background:new 0 0 37.9 30.8;" xml:space="preserve">
<style type="text/css">
	.st0{fill:#F2F1F1;}
</style>
<g>
	<path class="st0" d="M2.1,26.9C0.7,24.7,0,22,0,18.8c0-4.1,1-7.7,3.1-11C5.2,4.6,8.4,2,12.6,0l1.1,2.2c-2.5,1.1-4.7,2.7-6.5,5
		c-1.8,2.3-2.8,4.6-2.8,7c0,1,0.1,1.8,0.4,2.6c1.3-1.1,2.8-1.6,4.5-1.6c2.2,0,4.1,0.7,5.6,2.1c1.5,1.4,2.3,3.3,2.3,5.7
		c0,2.2-0.8,4.1-2.3,5.6c-1.5,1.5-3.4,2.3-5.6,2.3C6.1,30.8,3.7,29.5,2.1,26.9z M22.9,26.9c-1.4-2.2-2.1-4.9-2.1-8.1
		c0-4.1,1-7.7,3.1-11C26,4.6,29.1,2,33.4,0l1.1,2.2c-2.5,1.1-4.7,2.7-6.5,5c-1.8,2.3-2.8,4.6-2.8,7c0,1,0.1,1.8,0.4,2.6
		c1.3-1.1,2.8-1.6,4.5-1.6c2.2,0,4.1,0.7,5.6,2.1c1.5,1.4,2.3,3.3,2.3,5.7c0,2.2-0.8,4.1-2.3,5.6c-1.5,1.5-3.4,2.3-5.6,2.3
		C26.9,30.8,24.5,29.5,22.9,26.9z"/>
</g>
</svg>
