<svg xmlns="http://www.w3.org/2000/svg" viewBox="7823 1961 77.148 60">
  <defs>
    <style>
      .cls-1 {
        fill: #fff;
      }
    </style>
  </defs>
  <g id="inbox" transform="translate(7823 1904.098)">
    <g id="Group_1271" data-name="Group 1271" transform="translate(27.741 98.464)">
      <g id="Group_1270" data-name="Group 1270">
        <path id="Path_8117" data-name="Path 8117" class="cls-1" d="M203.446,332.734H186.431a2.328,2.328,0,0,0-2.326,2.326v5.219a2.328,2.328,0,0,0,2.326,2.326h17.015a2.328,2.328,0,0,0,2.326-2.326V335.06A2.329,2.329,0,0,0,203.446,332.734Zm-.664,6.88H187.095v-3.89h15.686Z" transform="translate(-184.105 -332.734)"/>
      </g>
    </g>
    <g id="Group_1273" data-name="Group 1273" transform="translate(0 56.902)">
      <g id="Group_1272" data-name="Group 1272" transform="translate(0 0)">
        <path id="Path_8118" data-name="Path 8118" class="cls-1" d="M76.391,85.539l.024-.012L65.2,63.362a5.268,5.268,0,0,0-4.723-2.9H58.349V58.4a1.5,1.5,0,0,0-1.5-1.5H20.293a1.5,1.5,0,0,0-1.5,1.5v2.061H16.668a5.268,5.268,0,0,0-4.723,2.9L.733,85.527l.024.012A5.2,5.2,0,0,0,0,88.249v23.417A5.242,5.242,0,0,0,5.236,116.9H71.911a5.242,5.242,0,0,0,5.236-5.236V88.249A5.2,5.2,0,0,0,76.391,85.539ZM58.349,63.78H60.48a1.962,1.962,0,0,1,1.759,1.082L71.42,83.013H65.177V77.428a1.5,1.5,0,0,0-1.5-1.5h-1.85v-8.02a1.5,1.5,0,0,0-1.5-1.5H58.349Zm3.837,15.143v4.09H54.3a3.454,3.454,0,0,0-3.144,2.031L49,89.822a.127.127,0,0,1-.115.074H28.264a.127.127,0,0,1-.115-.074l-2.154-4.778a3.455,3.455,0,0,0-3.144-2.032H14.961v-4.09Zm-40.4-19.03H55.359v6.525H21.789Zm37.054,9.515v6.525H18.306V69.407ZM14.909,64.862a1.961,1.961,0,0,1,1.759-1.082H18.8v2.637H16.811a1.5,1.5,0,0,0-1.5,1.5v8.02h-1.85a1.5,1.5,0,0,0-1.5,1.5v5.585H5.728Zm57,48.718H5.236a1.916,1.916,0,0,1-1.914-1.914V88.249a1.916,1.916,0,0,1,1.914-1.914H22.85a.127.127,0,0,1,.115.075l2.154,4.778a3.454,3.454,0,0,0,3.144,2.031h20.62a3.454,3.454,0,0,0,3.144-2.031l2.154-4.778h0a.127.127,0,0,1,.115-.074H71.911a1.916,1.916,0,0,1,1.914,1.914v23.417h0A1.916,1.916,0,0,1,71.911,113.58Z" transform="translate(0 -56.902)"/>
      </g>
    </g>
  </g>
</svg>
