<svg xmlns="http://www.w3.org/2000/svg" viewBox="7435.999 1961 49.102 60">
  <defs>
    <style>
      .cls-1 {
        fill: #fff;
      }
    </style>
  </defs>
  <g id="index" transform="translate(7389.498 1961)">
    <g id="Group_1262" data-name="Group 1262" transform="translate(46.501)">
      <g id="Group_1261" data-name="Group 1261" transform="translate(0)">
        <path id="Path_8109" data-name="Path 8109" class="cls-1" d="M94.492,30.854H93.078V11.644a4.918,4.918,0,0,0-4.912-4.912H71.239a2.677,2.677,0,0,1-2.506-1.708l-.749-1.907A4.885,4.885,0,0,0,63.411,0H53.938a4.918,4.918,0,0,0-4.912,4.912V28.264a1.11,1.11,0,0,0,2.22,0V21.5a2.7,2.7,0,0,1,2.692-2.692h9.475a2.679,2.679,0,0,1,2.506,1.708l.749,1.908a4.886,4.886,0,0,0,4.572,3.114H88.165a2.7,2.7,0,0,1,2.693,2.685v2.629H47.611a1.11,1.11,0,0,0-1.11,1.11v21.16a1.11,1.11,0,1,0,2.22,0V33.073H93.383V57.78H48.721V56.329a1.11,1.11,0,1,0-2.22,0V58.89A1.11,1.11,0,0,0,47.611,60H94.493a1.11,1.11,0,0,0,1.11-1.11V31.964A1.11,1.11,0,0,0,94.492,30.854Zm-3.634-15.02a4.884,4.884,0,0,0-2.693-.807h-2.71a1.11,1.11,0,0,0,0,2.22h2.71a2.7,2.7,0,0,1,2.693,2.684v4.2a4.884,4.884,0,0,0-2.693-.807H71.239a2.679,2.679,0,0,1-2.506-1.706l-.749-1.908a4.885,4.885,0,0,0-4.572-3.116H53.937a4.881,4.881,0,0,0-2.692.807v-4.19a2.7,2.7,0,0,1,2.692-2.692h9.475a2.679,2.679,0,0,1,2.506,1.708l.749,1.908a4.885,4.885,0,0,0,4.572,3.116H82.1a1.11,1.11,0,0,0,0-2.22H71.239a2.678,2.678,0,0,1-2.506-1.708l-.749-1.908a4.885,4.885,0,0,0-4.572-3.116H53.937a4.881,4.881,0,0,0-2.692.807V4.912A2.7,2.7,0,0,1,53.938,2.22h9.473a2.677,2.677,0,0,1,2.506,1.708l.749,1.907a4.884,4.884,0,0,0,4.572,3.116H88.165a2.7,2.7,0,0,1,2.693,2.693v4.189Z" transform="translate(-46.501)"/>
      </g>
    </g>
    <g id="Group_1264" data-name="Group 1264" transform="translate(57.35 39.517)">
      <g id="Group_1263" data-name="Group 1263">
        <path id="Path_8110" data-name="Path 8110" class="cls-1" d="M149.659,347.586l-1.5-3.45,0-.008-2.72-6.25a1.11,1.11,0,0,0-2.035,0l-2.72,6.25,0,.01-1.5,3.449a1.11,1.11,0,1,0,2.035.886l1.217-2.8h3.981l1.217,2.8a1.11,1.11,0,0,0,2.035-.886Zm-6.267-4.131,1.024-2.354,1.024,2.354Z" transform="translate(-139.081 -337.21)"/>
      </g>
    </g>
    <g id="Group_1266" data-name="Group 1266" transform="translate(75.623 39.409)">
      <g id="Group_1265" data-name="Group 1265">
        <path id="Path_8111" data-name="Path 8111" class="cls-1" d="M303.459,344a1.11,1.11,0,0,0-1.454.59,2.487,2.487,0,0,1-4.779-.968v-2.624a2.487,2.487,0,0,1,4.549-1.39,1.11,1.11,0,0,0,1.839-1.242,4.707,4.707,0,0,0-8.608,2.632v2.624a4.707,4.707,0,0,0,9.042,1.832A1.11,1.11,0,0,0,303.459,344Z" transform="translate(-295.006 -336.288)"/>
      </g>
    </g>
    <g id="Group_1268" data-name="Group 1268" transform="translate(68.847 44.605)">
      <g id="Group_1267" data-name="Group 1267" transform="translate(0)">
        <path id="Path_8112" data-name="Path 8112" class="cls-1" d="M241.256,380.623H238.3a1.11,1.11,0,1,0,0,2.22h2.959a1.11,1.11,0,1,0,0-2.22Z" transform="translate(-237.187 -380.623)"/>
      </g>
    </g>
  </g>
</svg>
