<svg xmlns="http://www.w3.org/2000/svg" viewBox="7030 1957 60 60">
  <defs>
    <style>
      .cls-1 {
        fill: #fff;
      }
    </style>
  </defs>
  <g id="scanner" transform="translate(7030 1957)">
    <g id="Group_1260" data-name="Group 1260" transform="translate(0 0)">
      <g id="Group_1259" data-name="Group 1259">
        <path id="Path_8107" data-name="Path 8107" class="cls-1" d="M59.113,43.84l-11.391-16.4a6.484,6.484,0,0,0-1.571-1.529,6.491,6.491,0,0,0,1.573-1.53l11.388-16.4A4.892,4.892,0,0,0,60,5.179,5.411,5.411,0,0,0,54.4,0H5.6A5.411,5.411,0,0,0,0,5.179a4.892,4.892,0,0,0,.887,2.8l11.391,16.4a6.484,6.484,0,0,0,1.571,1.529,6.491,6.491,0,0,0-1.573,1.53L.887,43.84A4.893,4.893,0,0,0,0,46.639a4.732,4.732,0,0,0,.077.705A1.327,1.327,0,0,0,0,47.727v6.818A5.461,5.461,0,0,0,5.455,60H54.546A5.461,5.461,0,0,0,60,54.545V47.727a1.328,1.328,0,0,0-.077-.383A4.73,4.73,0,0,0,60,46.639,4.893,4.893,0,0,0,59.113,43.84ZM3.129,6.423a2.171,2.171,0,0,1-.4-1.244A2.692,2.692,0,0,1,5.6,2.727H54.4a2.692,2.692,0,0,1,2.876,2.452,2.171,2.171,0,0,1-.4,1.244l-11.386,16.4a4.287,4.287,0,0,1-3.508,1.723H18.023a4.281,4.281,0,0,1-3.505-1.722ZM57.273,54.546a2.73,2.73,0,0,1-2.727,2.727H5.455a2.73,2.73,0,0,1-2.727-2.727V51.06a5.884,5.884,0,0,0,2.876.758H54.4a5.884,5.884,0,0,0,2.876-.758ZM54.4,49.091H5.6a2.692,2.692,0,0,1-2.876-2.452,2.171,2.171,0,0,1,.4-1.244L14.515,29a4.287,4.287,0,0,1,3.508-1.723H41.977a4.281,4.281,0,0,1,3.505,1.722L56.871,45.4a2.171,2.171,0,0,1,.4,1.244A2.692,2.692,0,0,1,54.4,49.091Z" transform="translate(0 0)"/>
        <path id="Path_8108" data-name="Path 8108" class="cls-1" d="M90.986,235a1.355,1.355,0,0,0-1.111-.578l-24.1-.036h0a1.365,1.365,0,0,0-1.121.586l-9.492,13.672a1.364,1.364,0,0,0,1.121,2.141h43.2a1.362,1.362,0,0,0,1.113-2.149Zm-32.1,13.058,7.6-10.944,22.678.033,7.692,10.91Z" transform="translate(-47.895 -204.421)"/>
        <circle id="Ellipse_38" data-name="Ellipse 38" class="cls-1" cx="1.364" cy="1.364" r="1.364" transform="translate(43.636 53.182)"/>
        <circle id="Ellipse_39" data-name="Ellipse 39" class="cls-1" cx="1.364" cy="1.364" r="1.364" transform="translate(49.091 53.182)"/>
      </g>
    </g>
  </g>
</svg>
