<svg xmlns="http://www.w3.org/2000/svg" viewBox="-16087.358 -8726.198 178.052 177.989">
  <defs>
    <style>
      .cls-1 {
        fill: #fff;
      }
    </style>
  </defs>
  <g id="_020-idea" data-name="020-idea" transform="translate(-16087.357 -8726.281)">
    <g id="Group_1041" data-name="Group 1041" transform="translate(26.69 77.153)">
      <g id="Group_1040" data-name="Group 1040">
        <path id="Path_354" data-name="Path 354" class="cls-1" d="M71.937,222.646h5.936a8.9,8.9,0,0,1,8.9-8.9V207.8A14.859,14.859,0,0,0,71.937,222.646Z" transform="translate(-71.937 -207.805)"/>
      </g>
    </g>
    <g id="Group_1043" data-name="Group 1043" transform="translate(38.563 100.899)">
      <g id="Group_1042" data-name="Group 1042">
        <path id="Path_355" data-name="Path 355" class="cls-1" d="M109.873,271.8h-5.936a14.859,14.859,0,0,0,14.841,14.841V280.71A8.9,8.9,0,0,1,109.873,271.8Z" transform="translate(-103.937 -271.805)"/>
      </g>
    </g>
    <g id="Group_1045" data-name="Group 1045" transform="translate(38.563 127.613)">
      <g id="Group_1044" data-name="Group 1044">
        <path id="Path_356" data-name="Path 356" class="cls-1" d="M103.937,358.646h5.936a8.9,8.9,0,0,1,8.9-8.9V343.8A14.859,14.859,0,0,0,103.937,358.646Z" transform="translate(-103.937 -343.805)"/>
      </g>
    </g>
    <g id="Group_1047" data-name="Group 1047" transform="translate(-0.001 0.083)">
      <g id="Group_1046" data-name="Group 1046">
        <path id="Path_357" data-name="Path 357" class="cls-1" d="M175.239,84.526A20.776,20.776,0,0,0,160.26,74.4V71.217a26.749,26.749,0,0,0-23.888-26.56,47.429,47.429,0,0,0-94.686,0,26.75,26.75,0,0,0-23.9,26.56V74.4a20.777,20.777,0,0,0-7.441,38.527,17.63,17.63,0,0,0-4.432,11.721,17.833,17.833,0,0,0,17.855,17.812l.252,0A35.867,35.867,0,0,0,53.63,163.128a17.839,17.839,0,0,0,17.584,14.945,14.859,14.859,0,0,0,14.841-14.841v-8.9h5.936v8.9a14.859,14.859,0,0,0,14.841,14.841,17.839,17.839,0,0,0,17.581-14.948,35.868,35.868,0,0,0,29.614-20.671h.3a17.83,17.83,0,0,0,17.809-17.809,17.63,17.63,0,0,0-4.432-11.719A20.777,20.777,0,0,0,175.239,84.526ZM47.8,42.137A41.561,41.561,0,1,1,94.366,88.643L114.49,53.408h7.183V47.471H97.928a2.969,2.969,0,0,0-2.657,1.641l-1.348,2.7L91.991,32.333a2.968,2.968,0,0,0-5.61-1.033l-8.1,16.171H56.373v5.936h7.183L83.68,88.643A41.534,41.534,0,0,1,47.8,42.137Zm17.476,88.445v-5.936h47.491v5.936ZM109,136.518a5.937,5.937,0,0,1-5.138,2.968H74.182a5.937,5.937,0,0,1-5.138-2.968ZM68.245,118.708V115.74H109.8v2.968Zm-2.968-8.9v-5.936h47.491V109.8ZM109.8,90.11v7.821H68.245V90.11A46.9,46.9,0,0,0,109.8,90.11Zm-39.409-36.7h9.727a2.969,2.969,0,0,0,2.657-1.641l4.316-8.635,1.932,19.477a2.968,2.968,0,0,0,5.61,1.033l5.129-10.234h7.892L89.023,86.01ZM159.3,112.894a2.968,2.968,0,0,0,1.282,1.707,11.748,11.748,0,0,1-8,21.73,2.944,2.944,0,0,0-3.212,1.873,29.842,29.842,0,0,1-27.7,19.092,2.968,2.968,0,0,0-2.968,2.968,11.873,11.873,0,0,1-11.873,11.873,8.9,8.9,0,0,1-8.9-8.9v-8.9h8.9V148.39H74.182v5.936h5.936v8.9a8.9,8.9,0,0,1-8.9,8.9,11.873,11.873,0,0,1-11.873-11.873,2.968,2.968,0,0,0-2.968-2.968,29.842,29.842,0,0,1-27.7-19.092,3.1,3.1,0,0,0-3.318-1.858,10.907,10.907,0,0,1-1.633.172A11.843,11.843,0,0,1,17.468,114.6a2.968,2.968,0,0,0-.763-5.372,14.841,14.841,0,0,1,4.049-29.106,2.968,2.968,0,0,0,2.968-2.968V71.217a20.793,20.793,0,0,1,17.97-20.564A47.471,47.471,0,0,0,62.309,86.705V97.931a2.968,2.968,0,0,0-2.968,2.968v11.873a2.968,2.968,0,0,0,2.968,2.968v2.968a2.968,2.968,0,0,0-2.968,2.968v11.873a2.968,2.968,0,0,0,2.968,2.968h.421a11.873,11.873,0,0,0,11.451,8.9h29.682a11.873,11.873,0,0,0,11.451-8.9h.421a2.968,2.968,0,0,0,2.968-2.968V121.677a2.968,2.968,0,0,0-2.968-2.968V115.74a2.968,2.968,0,0,0,2.968-2.968V100.9a2.968,2.968,0,0,0-2.968-2.968V86.705A47.471,47.471,0,0,0,136.354,50.65a20.792,20.792,0,0,1,17.97,20.567v5.936a2.968,2.968,0,0,0,2.968,2.968,14.841,14.841,0,0,1,4.052,29.106A2.968,2.968,0,0,0,159.3,112.894Z" transform="translate(0.001 -0.083)"/>
      </g>
    </g>
    <g id="Group_1049" data-name="Group 1049" transform="translate(136.514 77.153)">
      <g id="Group_1048" data-name="Group 1048">
        <path id="Path_358" data-name="Path 358" class="cls-1" d="M367.937,207.8v5.936a8.9,8.9,0,0,1,8.9,8.9h5.936A14.858,14.858,0,0,0,367.937,207.8Z" transform="translate(-367.937 -207.805)"/>
      </g>
    </g>
    <g id="Group_1051" data-name="Group 1051" transform="translate(124.641 100.899)">
      <g id="Group_1050" data-name="Group 1050">
        <path id="Path_359" data-name="Path 359" class="cls-1" d="M344.842,271.8a8.9,8.9,0,0,1-8.9,8.9v5.936A14.859,14.859,0,0,0,350.778,271.8Z" transform="translate(-335.937 -271.805)"/>
      </g>
    </g>
    <g id="Group_1053" data-name="Group 1053" transform="translate(124.641 127.613)">
      <g id="Group_1052" data-name="Group 1052">
        <path id="Path_360" data-name="Path 360" class="cls-1" d="M335.937,343.8v5.936a8.9,8.9,0,0,1,8.9,8.9h5.936A14.858,14.858,0,0,0,335.937,343.8Z" transform="translate(-335.937 -343.805)"/>
      </g>
    </g>
    <g id="Group_1055" data-name="Group 1055" transform="translate(33.498 3.818)">
      <g id="Group_1054" data-name="Group 1054">
        <rect id="Rectangle_211" data-name="Rectangle 211" class="cls-1" width="5.936" height="12.594" transform="translate(0 4.198) rotate(-45)"/>
      </g>
    </g>
    <g id="Group_1057" data-name="Group 1057" transform="translate(26.69 23.725)">
      <g id="Group_1056" data-name="Group 1056">
        <rect id="Rectangle_212" data-name="Rectangle 212" class="cls-1" width="11.873" height="5.936"/>
      </g>
    </g>
    <g id="Group_1059" data-name="Group 1059" transform="translate(139.482 23.725)">
      <g id="Group_1058" data-name="Group 1058">
        <rect id="Rectangle_213" data-name="Rectangle 213" class="cls-1" width="11.873" height="5.936"/>
      </g>
    </g>
    <g id="Group_1061" data-name="Group 1061" transform="translate(131.449 3.815)">
      <g id="Group_1060" data-name="Group 1060" transform="translate(0)">
        <rect id="Rectangle_214" data-name="Rectangle 214" class="cls-1" width="12.594" height="5.936" transform="translate(0 8.905) rotate(-45)"/>
      </g>
    </g>
  </g>
</svg>
